# xmcd
#
# Track frame offsets: 
#        150
#        16333
#        24640
#        38726
#        56315
#        70227
#        82661
#        93986
#        111263
#        123732
#        141084
#        157324
#        172203
#        187079
#        199323
#        210832
#
# Disc length: 2823 seconds
#
# Revision: 0
# Processed by: cddbd v1.5.2PL0 Copyright (c) Steve Scherf et al.
# Submitted via: ExactAudioCopy v0.99pb4
#
DISCID=e00b0510
DTITLE=Michael Saxell - Wonky Windmill
DYEAR=2005
DGENRE=Terror
TTITLE0=Wightless In Your Web
TTITLE1=Sloppy Bruce
TTITLE2=It's Always Something
TTITLE3=But I Love Her
TTITLE4=If You Don't Believe
TTITLE5=Two Men
TTITLE6=Dirt Car
TTITLE7=Opium
TTITLE8=Prince of Darkness
TTITLE9=At a Time Like This
TTITLE10=I Still Pine For the Alps
TTITLE11=The Art of Doing Nothing
TTITLE12=Arezzo Morning
TTITLE13=Heaven Is
TTITLE14=Thirty I Love You's
TTITLE15=?
EXTD=
EXTT0=
EXTT1=
EXTT2=
EXTT3=
EXTT4=
EXTT5=
EXTT6=
EXTT7=
EXTT8=
EXTT9=
EXTT10=
EXTT11=
EXTT12=
EXTT13=
EXTT14=
EXTT15=
PLAYORDER=
